<svg xmlns:xlink="http://www.w3.org/1999/xlink" class="" xmlns="http://www.w3.org/2000/svg" viewBox="0 0 200 200" width="200"  height="200" ><defs><symbol id="-images-horizon-common-icon-brands-momondo-flights-rising" xmlns="http://www.w3.org/2000/svg" viewBox="0 0 200 200"><path fill="none" stroke="#000000" stroke-width="10px" stroke-linecap="round" stroke-linejoin="round" d="M144.6 55.3c23.4-10.2 40.4 4 40.4 10.4 0 6.2-15.1 22.4-45.5 39.1L135 150c-1.4 8.1-10.4 15.4-15.9 15.4-1.9 0-3.4-.8-4.1-2.7-2.4-6.8-12.5-34.1-14.6-39.7-14.7 5.6-33.3 11.7-48.9 11.7-31.8 0-32.6-25.3-35.9-42.3-1.9-9.9 8.9-13.8 14.8-8.3l16.2 13.7c62.4-27.3 81.5-35.7 98-42.5zm-31.2 13.3L70.6 46.8c-10.3-4-16.1-.4-20.5 1.6-3.5 1.5-4.8 3.6 2.1 11.7 15.2 17.8 23.1 25.1 23.1 25.1"></path></symbol></defs><use xlink:href="#-images-horizon-common-icon-brands-momondo-flights-rising"></use></svg>